<svg width="20" height="22" viewBox="0 0 20 22" fill="none" xmlns="http://www.w3.org/2000/svg">
<path fill-rule="evenodd" clip-rule="evenodd" d="M17.1152 2.77457C16.1012 1.73857 14.6552 1.35757 13.2402 1.75957C13.1444 1.79032 13.0434 1.80148 12.9432 1.79238C12.843 1.78329 12.7457 1.75413 12.657 1.70664C12.5683 1.65915 12.4901 1.5943 12.4269 1.51595C12.3638 1.43759 12.3171 1.34734 12.2896 1.25057C12.2621 1.15379 12.2543 1.05247 12.2668 0.952635C12.2792 0.852797 12.3116 0.756486 12.3621 0.669433C12.4125 0.582381 12.48 0.506367 12.5604 0.445918C12.6408 0.385469 12.7326 0.341819 12.8302 0.317568C14.7672 -0.234432 16.7842 0.292567 18.1872 1.72557C18.2577 1.79562 18.3135 1.87898 18.3515 1.97079C18.3894 2.0626 18.4088 2.16104 18.4084 2.26039C18.4079 2.35974 18.3878 2.45801 18.3491 2.54951C18.3104 2.64101 18.2539 2.72391 18.1829 2.7934C18.1119 2.86288 18.0278 2.91757 17.9355 2.95427C17.8432 2.99098 17.7445 3.00898 17.6451 3.00723C17.5458 3.00548 17.4478 2.98401 17.3568 2.94407C17.2659 2.90413 17.1837 2.84651 17.1152 2.77457ZM9.39923 2.16057C9.18524 1.79357 8.56124 1.57057 7.92824 1.93357C7.29624 2.29357 7.18524 2.93057 7.39624 3.29057L9.92124 7.62257C9.97511 7.70773 10.0113 7.80289 10.0276 7.90234C10.0438 8.00179 10.0399 8.10351 10.016 8.20141C9.99211 8.29931 9.94872 8.39139 9.88844 8.47215C9.82816 8.55291 9.75222 8.6207 9.66516 8.67145C9.5781 8.72221 9.4817 8.7549 9.38172 8.76758C9.28175 8.78025 9.18024 8.77264 9.08327 8.74521C8.98629 8.71778 8.89585 8.67109 8.81732 8.60792C8.7388 8.54475 8.67381 8.46641 8.62624 8.37757L6.09924 4.04657L5.25823 2.60257C5.04423 2.23557 4.42024 2.01257 3.78724 2.37557C3.15524 2.73557 3.04424 3.37257 3.25424 3.73257L7.04323 10.2296C7.09287 10.3147 7.12527 10.4087 7.13856 10.5063C7.15186 10.6039 7.1458 10.7032 7.12073 10.7985C7.09565 10.8938 7.05206 10.9832 6.99244 11.0616C6.93282 11.14 6.85833 11.2059 6.77324 11.2556C6.68814 11.3052 6.5941 11.3376 6.49648 11.3509C6.39887 11.3642 6.29959 11.3581 6.20432 11.3331C6.10904 11.308 6.01964 11.2644 5.94122 11.2048C5.86279 11.1452 5.79688 11.0707 5.74724 10.9856L4.06324 8.09757C3.84924 7.73057 3.22624 7.50757 2.59224 7.87057C1.96124 8.23057 1.84924 8.86657 2.06024 9.22757L5.84824 15.7246C7.45824 18.4836 11.4282 19.3786 14.7952 17.4546C18.1592 15.5316 19.3552 11.6906 17.7502 8.93757L15.2242 4.60657C15.0102 4.23957 14.3862 4.01657 13.7532 4.37857C13.1212 4.73957 13.0112 5.37557 13.2212 5.73657L14.9052 8.62357C14.9553 8.70918 14.9878 8.80387 15.0011 8.90216C15.0143 9.00045 15.0078 9.10037 14.9822 9.19616C14.9565 9.29195 14.9121 9.3817 14.8515 9.46021C14.7909 9.53873 14.7154 9.60445 14.6292 9.65357C13.0862 10.5336 12.6142 12.2386 13.2892 13.3966C13.3389 13.4817 13.3713 13.5757 13.3846 13.6733C13.3979 13.7709 13.3918 13.8702 13.3667 13.9655C13.3417 14.0608 13.2981 14.1502 13.2384 14.2286C13.1788 14.307 13.1043 14.3729 13.0192 14.4226C12.9341 14.4722 12.8401 14.5046 12.7425 14.5179C12.6449 14.5312 12.5456 14.5251 12.4503 14.5001C12.355 14.475 12.2656 14.4314 12.1872 14.3718C12.1088 14.3122 12.0429 14.2377 11.9932 14.1526C10.9332 12.3356 11.6012 10.0896 13.2562 8.77557L9.39923 2.16057ZM12.1292 3.86257L10.6962 1.40657C9.98024 0.178567 8.37323 -0.0474324 7.18524 0.632568C6.82307 0.837615 6.51118 1.12082 6.27223 1.46157C5.47223 0.580568 4.09424 0.473568 3.04324 1.07357C1.85324 1.75457 1.24023 3.25557 1.96023 4.48957L2.96223 6.20857C2.57063 6.25172 2.19193 6.37421 1.84924 6.56857C0.658235 7.24857 0.0452351 8.75057 0.765235 9.98457L4.55423 16.4816C6.66424 20.1016 11.6182 20.9996 15.5402 18.7576C19.4642 16.5156 21.1612 11.8086 19.0472 8.18257L16.5192 3.85257C15.8032 2.62457 14.1962 2.39857 13.0082 3.07757C12.6582 3.27757 12.3582 3.54857 12.1272 3.86257M2.62324 16.7126C2.70833 16.6629 2.80237 16.6305 2.89999 16.6172C2.99761 16.6039 3.09689 16.6099 3.19217 16.635C3.28745 16.6601 3.37686 16.7037 3.45528 16.7633C3.53371 16.8229 3.59961 16.8975 3.64924 16.9826C4.47624 18.4006 5.73924 19.4726 7.29924 20.1686C7.48091 20.2497 7.6229 20.3997 7.69398 20.5856C7.76505 20.7714 7.75939 20.9779 7.67824 21.1596C7.59708 21.3412 7.44708 21.4832 7.26123 21.5543C7.07538 21.6254 6.86891 21.6197 6.68723 21.5386C4.87624 20.7296 3.35624 19.4586 2.35324 17.7386C2.30357 17.6535 2.27116 17.5594 2.25785 17.4618C2.24454 17.3642 2.25059 17.2649 2.27567 17.1696C2.30074 17.0743 2.34434 16.9849 2.40398 16.9065C2.46362 16.8281 2.53812 16.7622 2.62324 16.7126Z" fill="#FEC30D"/>
</svg>
