<svg width="20" height="22" viewBox="0 0 20 22" fill="none" xmlns="http://www.w3.org/2000/svg">
<path fill-rule="evenodd" clip-rule="evenodd" d="M16.906 2.92203C15.892 1.88603 14.446 1.50503 13.031 1.90703C12.9352 1.93778 12.8342 1.94894 12.734 1.93985C12.6338 1.93075 12.5365 1.90159 12.4478 1.8541C12.3591 1.80661 12.2808 1.74176 12.2177 1.66341C12.1546 1.58506 12.1079 1.49481 12.0804 1.39803C12.0529 1.30126 12.0451 1.19993 12.0576 1.1001C12.07 1.00026 12.1024 0.903947 12.1529 0.816894C12.2033 0.729842 12.2707 0.653828 12.3512 0.593379C12.4316 0.532929 12.5234 0.48928 12.621 0.465029C14.558 -0.0869714 16.575 0.440028 17.978 1.87303C18.0484 1.94309 18.1043 2.02644 18.1422 2.11825C18.1802 2.21006 18.1995 2.3085 18.1991 2.40785C18.1987 2.5072 18.1786 2.60547 18.1399 2.69697C18.1012 2.78847 18.0447 2.87137 17.9737 2.94086C17.9027 3.01034 17.8186 3.06503 17.7262 3.10173C17.6339 3.13844 17.5352 3.15644 17.4359 3.15469C17.3366 3.15294 17.2386 3.13147 17.1476 3.09153C17.0566 3.05159 16.9745 2.99397 16.906 2.92203ZM9.19001 2.30803C8.97601 1.94103 8.35201 1.71803 7.71901 2.08103C7.08701 2.44103 6.97601 3.07803 7.18701 3.43803L9.71201 7.77003C9.76588 7.8552 9.80204 7.95035 9.81833 8.0498C9.83461 8.14925 9.83069 8.25097 9.80679 8.34887C9.78288 8.44677 9.7395 8.53885 9.67921 8.61961C9.61893 8.70037 9.54299 8.76816 9.45593 8.81891C9.36887 8.86967 9.27247 8.90236 9.17249 8.91504C9.07252 8.92771 8.97101 8.9201 8.87404 8.89267C8.77707 8.86524 8.68662 8.81855 8.60809 8.75538C8.52957 8.69221 8.46458 8.61387 8.41701 8.52503L5.89001 4.19403L5.04901 2.75003C4.83501 2.38303 4.21101 2.16003 3.57801 2.52303C2.94601 2.88303 2.83501 3.52003 3.04501 3.88003L6.83401 10.377C6.88365 10.4621 6.91604 10.5562 6.92933 10.6538C6.94263 10.7514 6.93657 10.8507 6.9115 10.9459C6.88643 11.0412 6.84283 11.1306 6.78321 11.209C6.72359 11.2875 6.6491 11.3534 6.56401 11.403C6.47891 11.4527 6.38487 11.4851 6.28725 11.4984C6.18964 11.5117 6.09036 11.5056 5.99509 11.4805C5.89981 11.4554 5.81041 11.4119 5.73199 11.3522C5.65356 11.2926 5.58765 11.2181 5.53801 11.133L3.85401 8.24503C3.64001 7.87803 3.01701 7.65503 2.38301 8.01803C1.75201 8.37803 1.64001 9.01403 1.85101 9.37503L5.63901 15.872C7.24901 18.631 11.219 19.526 14.586 17.602C17.95 15.679 19.146 11.838 17.541 9.08503L15.015 4.75403C14.801 4.38703 14.177 4.16403 13.544 4.52603C12.912 4.88703 12.802 5.52303 13.012 5.88403L14.696 8.77103C14.746 8.85664 14.7786 8.95133 14.7918 9.04962C14.805 9.14791 14.7986 9.24783 14.7729 9.34362C14.7473 9.43941 14.7029 9.52916 14.6423 9.60767C14.5817 9.68619 14.5062 9.75191 14.42 9.80103C12.877 10.681 12.405 12.386 13.08 13.544C13.1296 13.6291 13.162 13.7232 13.1753 13.8208C13.1886 13.9184 13.1826 14.0177 13.1575 14.1129C13.1324 14.2082 13.0888 14.2976 13.0292 14.376C12.9696 14.4545 12.8951 14.5204 12.81 14.57C12.7249 14.6197 12.6309 14.6521 12.5333 14.6654C12.4356 14.6787 12.3364 14.6726 12.2411 14.6475C12.1458 14.6224 12.0564 14.5789 11.978 14.5192C11.8996 14.4596 11.8336 14.3851 11.784 14.3C10.724 12.483 11.392 10.237 13.047 8.92303L9.19001 2.30803ZM11.92 4.01003L10.487 1.55403C9.77101 0.326028 8.16401 0.100029 6.97601 0.780029C6.61385 0.985076 6.30195 1.26828 6.06301 1.60903C5.26301 0.728028 3.88501 0.621028 2.83401 1.22103C1.64401 1.90203 1.03101 3.40303 1.75101 4.63703L2.75301 6.35603C2.3614 6.39918 1.9827 6.52167 1.64001 6.71603C0.449007 7.39603 -0.163993 8.89803 0.556007 10.132L4.34501 16.629C6.45501 20.249 11.409 21.147 15.331 18.905C19.255 16.663 20.952 11.956 18.838 8.33003L16.31 4.00003C15.594 2.77203 13.987 2.54603 12.799 3.22503C12.449 3.42503 12.149 3.69603 11.918 4.01003M2.41401 16.86C2.4991 16.8104 2.59314 16.778 2.69076 16.7646C2.78838 16.7513 2.88767 16.7574 2.98295 16.7825C3.07823 16.8075 3.16763 16.8511 3.24606 16.9108C3.32448 16.9704 3.39039 17.0449 3.44001 17.13C4.26701 18.548 5.53001 19.62 7.09001 20.316C7.27168 20.3972 7.41367 20.5472 7.48475 20.733C7.55583 20.9189 7.55016 21.1254 7.46901 21.307C7.38785 21.4887 7.23785 21.6307 7.052 21.7018C6.86615 21.7728 6.65968 21.7672 6.47801 21.686C4.66701 20.877 3.14701 19.606 2.14401 17.886C2.09434 17.8009 2.06193 17.7069 2.04862 17.6093C2.03531 17.5117 2.04136 17.4124 2.06644 17.3171C2.09151 17.2218 2.13511 17.1324 2.19475 17.054C2.25439 16.9756 2.32889 16.9097 2.41401 16.86Z" fill="#FEC30D"/>
</svg>
