<svg width="28" height="29" viewBox="0 0 28 29" fill="none" xmlns="http://www.w3.org/2000/svg">
<path d="M4.88945 28.0003C2.99287 28.0003 1.45532 26.5303 1.45532 24.7153V11.5124C1.45532 10.5149 1.93027 9.56987 2.74332 8.94737L12.1892 1.72041C12.7927 1.25479 13.5517 1 14.3353 1C15.1189 1 15.8779 1.25479 16.4814 1.72041L25.9257 8.94737C26.7404 9.56987 27.2153 10.5149 27.2153 11.5124V24.7153C27.2153 26.5303 25.6778 28.0003 23.7812 28.0003H4.88945Z" stroke="#FEC30D" stroke-width="1.5" stroke-linecap="round" stroke-linejoin="round"/>
<path d="M10.3103 28.0003V19.7504C10.3103 18.9547 10.6496 18.1916 11.2534 17.629C11.8573 17.0664 12.6763 16.7504 13.5303 16.7504H15.1403C15.9943 16.7504 16.8133 17.0664 17.4172 17.629C18.021 18.1916 18.3603 18.9547 18.3603 19.7504V28.0003" stroke="#FEC30D" stroke-width="1.5" stroke-linecap="round" stroke-linejoin="round"/>
</svg>
