<svg width="36" height="36" viewBox="0 0 36 36" fill="none" xmlns="http://www.w3.org/2000/svg">
<path d="M9.93272 11.9897C9.77686 13.6522 9.66749 16.5944 10.6491 17.8467C10.6491 17.8467 10.187 14.6147 14.3296 10.5596C15.9976 8.92717 16.3831 6.70685 15.8007 5.04162C15.4698 4.09826 14.8655 3.31896 14.3405 2.77482C14.0343 2.4549 14.2694 1.92717 14.7151 1.94631C17.4112 2.06662 21.7808 2.81584 23.6374 7.47521C24.4523 9.52053 24.5124 11.6342 24.1241 13.7834C23.878 15.1561 23.003 18.2076 24.9991 18.5822C26.4237 18.8502 27.1128 17.7182 27.4218 16.9033C27.5503 16.5643 27.996 16.4795 28.2366 16.7502C30.6429 19.4873 30.848 22.7112 30.3503 25.4865C29.3878 30.8514 23.9546 34.7561 18.5569 34.7561C11.814 34.7561 6.44639 30.8979 5.0546 23.9143C4.49405 21.0951 4.77842 15.517 9.12608 11.5795C9.44874 11.2842 9.97647 11.5467 9.93272 11.9897Z" fill="url(#paint0_radial_8_132)"/>
<path d="M20.9721 21.9501C18.4137 18.8088 19.4424 15.1338 20.0185 13.6655C20.0962 13.4723 19.8733 13.2969 19.7038 13.4184C18.6517 14.1701 16.5013 15.9317 15.537 18.3635C14.2314 21.651 14.3664 23.2425 15.2285 25.17C15.7476 26.3315 15.1819 26.5934 14.8959 26.6437C14.6181 26.6938 14.3569 26.5139 14.1474 26.3245C13.5446 25.7717 13.1078 25.062 12.8859 24.2748C12.8382 24.1063 12.6157 24.065 12.5178 24.2067C11.7767 25.2822 11.4193 26.9889 11.4278 28.1894C11.4529 31.9004 14.5865 34.837 18.2933 34.7518C22.9651 34.6444 26.2497 29.3995 23.466 25.1421C22.658 23.9025 21.9065 23.0965 20.9721 21.9501Z" fill="url(#paint1_radial_8_132)"/>
<defs>
<radialGradient id="paint0_radial_8_132" cx="0" cy="0" r="1" gradientUnits="userSpaceOnUse" gradientTransform="translate(17.2214 34.8411) rotate(-179.751) scale(19.3013 31.6696)">
<stop offset="0.314" stop-color="#FF9800"/>
<stop offset="0.662" stop-color="#FF6D00"/>
<stop offset="0.972" stop-color="#F44336"/>
</radialGradient>
<radialGradient id="paint1_radial_8_132" cx="0" cy="0" r="1" gradientUnits="userSpaceOnUse" gradientTransform="translate(18.1107 15.6262) rotate(89.2619) scale(20.1951 15.1983)">
<stop offset="0.214" stop-color="#FFF176"/>
<stop offset="0.328" stop-color="#FFF27D"/>
<stop offset="0.487" stop-color="#FFF48F"/>
<stop offset="0.672" stop-color="#FFF7AD"/>
<stop offset="0.793" stop-color="#FFF9C4"/>
<stop offset="0.822" stop-color="#FFF8BD" stop-opacity="0.804"/>
<stop offset="0.863" stop-color="#FFF6AB" stop-opacity="0.529"/>
<stop offset="0.91" stop-color="#FFF38D" stop-opacity="0.209"/>
<stop offset="0.941" stop-color="#FFF176" stop-opacity="0"/>
</radialGradient>
</defs>
</svg>
