<svg width="22" height="22" viewBox="0 0 22 22" fill="none" xmlns="http://www.w3.org/2000/svg">
<path d="M8.16231 16.1634C5.97733 16.1634 4.12831 15.4065 2.61526 13.8927C1.10221 12.3788 0.345285 10.5298 0.344483 8.3456C0.343681 6.16142 1.10061 4.3124 2.61526 2.79855C4.12992 1.2847 5.97893 0.527771 8.16231 0.527771C10.3457 0.527771 12.1951 1.2847 13.7106 2.79855C15.226 4.3124 15.9826 6.16142 15.9801 8.3456C15.9801 9.22761 15.8398 10.0595 15.5592 10.8413C15.2785 11.6231 14.8977 12.3147 14.4166 12.916L21.1519 19.6514C21.3724 19.8719 21.4827 20.1525 21.4827 20.4933C21.4827 20.8341 21.3724 21.1147 21.1519 21.3352C20.9314 21.5557 20.6508 21.666 20.31 21.666C19.9692 21.666 19.6886 21.5557 19.4681 21.3352L12.7327 14.5999C12.1314 15.081 11.4398 15.4618 10.658 15.7425C9.87622 16.0231 9.04432 16.1634 8.16231 16.1634ZM8.16231 13.7579C9.66574 13.7579 10.9439 13.2319 11.9967 12.1799C13.0495 11.1279 13.5755 9.84983 13.5747 8.3456C13.5739 6.84137 13.0479 5.56366 11.9967 4.51246C10.9455 3.46126 9.66735 2.93486 8.16231 2.93326C6.65728 2.93165 5.37957 3.45805 4.32917 4.51246C3.27878 5.56686 2.75237 6.84458 2.74997 8.3456C2.74756 9.84663 3.27396 11.1247 4.32917 12.1799C5.38438 13.2352 6.66209 13.7612 8.16231 13.7579Z" fill="#FFDCDC"/>
</svg>
